# xmcd
#
# Track frame offsets: 
#        150
#        674
#        20056
#        36234
#        56133
#        71803
#        87873
#        103798
#        119412
#        135828
#        153063
#        167592
#        180995
#        199176
#        219098
#        236842
#        249890
#        267083
#        281203
#        294751
#        312139
#
# Disc length: 4434 seconds
#
# Revision: 0
# Processed by: cddbd v1.5.2PL0 Copyright (c) Steve Scherf et al.
# Submitted via: ExactAudioCopy v0.99pb4
#
DISCID=1c115015
DTITLE=Various Artist - prevue promo 1071A-4
DYEAR=2001
DGENRE=pop
TTITLE0=blank - data
TTITLE1=Mandalay - This Life
TTITLE2=Dave Matthews Band - Space Between, The(Remix)
TTITLE3=Kina - Have A Cry(Album Version Amended)
TTITLE4=Hoku - Perfect Day(Radio Remix -  Movie "Legally Blonde")
TTITLE5=Samantha Mumba - Don't Need You To (Tell Me I'm Pretty-  Movie
TTITLE5="Legally Blonde")
TTITLE6=P 2000 - It's Gonna Be Alright
TTITLE7=Hi-Tek feat.  Jonell - Round And Round
TTITLE8=Backstreet Boys - More Than That(Mike Rizzo Dance Mix)
TTITLE9=Tamia - Tell Me Who(Mike Rizzo Dance Mix)
TTITLE10=Dreamstreet - It Happens Every Time
TTITLE11=Adrenaline - Damn That DJ Made My Day(Vissions Radio Edit)
TTITLE12=Blues Traveler - Back In The Day
TTITLE13=Badly Drawn Boy - Spitting In The Wind
TTITLE14=Lloyd Cole - Impossible Girl
TTITLE15=Rosie Flores - I Push Right Over
TTITLE16=Stevie Nicks with Natalie Maines - Too Far From Texas
TTITLE17=Dwight Yoakam - I Want You To Want Me
TTITLE18=Spike 1000 - Make Me Suffer
TTITLE19=From Zero - Other Side, The
TTITLE20=Black Label Society - Like A Bird
EXTD=
EXTT0=
EXTT1=
EXTT2=
EXTT3=
EXTT4=
EXTT5=
EXTT6=
EXTT7=
EXTT8=
EXTT9=
EXTT10=
EXTT11=
EXTT12=
EXTT13=
EXTT14=
EXTT15=
EXTT16=
EXTT17=
EXTT18=
EXTT19=
EXTT20=
PLAYORDER=
